<?xml version="1.0" encoding="utf-8"?>
<!-- Generator: Adobe Illustrator 28.1.0, SVG Export Plug-In . SVG Version: 6.00 Build 0)  -->
<svg version="1.1" id="Layer_1" xmlns="http://www.w3.org/2000/svg" xmlns:xlink="http://www.w3.org/1999/xlink" x="0px" y="0px"
	 viewBox="0 0 501.815 126.317" style="enable-background:new 0 0 501.815 126.317;" xml:space="preserve">
<style type="text/css">
	.st0{clip-path:url(#SVGID_00000108272470714057475850000012444198423500072845_);fill:#575756;}
	
		.st1{clip-path:url(#SVGID_00000042702262333985176970000000721214872619295365_);fill:url(#SVGID_00000152979465064201961680000007849632062400052099_);}
	
		.st2{clip-path:url(#SVGID_00000183943671658057847360000005786237882079032753_);fill:url(#SVGID_00000116932147535374023730000010283302126496061630_);}
	
		.st3{clip-path:url(#SVGID_00000161629402236716019930000010397238700986442676_);fill:url(#SVGID_00000008835735559879890930000009887031883427785914_);}
	
		.st4{clip-path:url(#SVGID_00000086650405267509116980000015407845890162914187_);fill:url(#SVGID_00000020369421359595993170000000241439287417815469_);}
	
		.st5{clip-path:url(#SVGID_00000033344806346762932920000007882768513015088769_);fill:url(#SVGID_00000031185881565886654590000000311706521422927264_);}
	
		.st6{clip-path:url(#SVGID_00000021820579744387206050000003059886071447496090_);fill:url(#SVGID_00000152974101244118534630000005625867561864675257_);}
	
		.st7{clip-path:url(#SVGID_00000145770566225701902920000010973450407552969900_);fill:url(#SVGID_00000155126151086197362970000005078063600438782608_);}
	.st8{clip-path:url(#SVGID_00000140725677730683662410000008449044250017811376_);fill:#009FE3;}
</style>
<g>
	<g>
		<defs>
			<rect id="SVGID_1_" x="0.513" width="501.303" height="126.317"/>
		</defs>
		<clipPath id="SVGID_00000137829207567932238070000012684985146720609170_">
			<use xlink:href="#SVGID_1_"  style="overflow:visible;"/>
		</clipPath>
		<path style="clip-path:url(#SVGID_00000137829207567932238070000012684985146720609170_);fill:#575756;" d="M500.207,120.357
			V34.583l-15.724,12.53v73.243H500.207z M362.973,120.357V65.676c0-10.901,6.075-17.871,15.369-17.871
			c10.185,0,16.797,5.72,16.797,20.373v52.179h15.724V68.178c0-14.653,6.612-20.373,16.797-20.373
			c9.291,0,15.369,6.97,15.369,17.871v54.681h15.724V62.103c0-16.084-13.224-29.306-30.735-29.306
			c-9.651,0-19.3,3.931-25.017,12.151c-5.72-8.22-15.369-12.151-25.017-12.151c-17.513,0-30.737,13.222-30.737,29.306v58.254
			H362.973z M314.725,34.583v50.035c0,13.222-9.649,22.515-20.907,22.515c-11.256,0-20.907-9.293-20.907-22.515V34.583h-15.724
			v50.035c0,22.515,15.724,37.526,36.631,37.526c20.907,0,36.634-15.011,36.634-37.526V34.583H314.725z M191.07,10.279v69.692
			c0,23.588,15.548,40.386,39.67,40.386h18.763v-15.726h-16.261c-17.513,0-25.375-9.47-25.375-28.769v-50.97L191.07,10.279z"/>
	</g>
	<g>
		<defs>
			<path id="SVGID_00000164487704159775713200000002669972199286148756_" d="M482.873,15.463c0,4.823,3.397,9.47,9.472,9.47
				s9.47-4.647,9.47-9.47s-3.394-9.472-9.47-9.472S482.873,10.64,482.873,15.463"/>
		</defs>
		<clipPath id="SVGID_00000013178981596837086500000004146905210738301079_">
			<use xlink:href="#SVGID_00000164487704159775713200000002669972199286148756_"  style="overflow:visible;"/>
		</clipPath>
		
			<linearGradient id="SVGID_00000000919880923313918630000009312800783159230138_" gradientUnits="userSpaceOnUse" x1="-102.8199" y1="400.4583" x2="-100.4022" y2="400.4583" gradientTransform="matrix(7.8349 0 0 -7.8349 1288.4584 3153.0183)">
			<stop  offset="0" style="stop-color:#0075C9"/>
			<stop  offset="0.0054" style="stop-color:#0075C9"/>
			<stop  offset="1" style="stop-color:#009FE3"/>
		</linearGradient>
		
			<rect x="482.874" y="5.991" style="clip-path:url(#SVGID_00000013178981596837086500000004146905210738301079_);fill:url(#SVGID_00000000919880923313918630000009312800783159230138_);" width="18.942" height="18.942"/>
	</g>
	<g>
		<defs>
			<path id="SVGID_00000091013292840591712600000002114497721509920412_" d="M2.488,59.001l-0.44,0.442
				C0,61.489,0,64.825,2.048,66.876l41,40.998c11.895,11.892,27.776,18.444,44.711,18.444c16.943,0,32.819-6.552,44.721-18.449
				l0.222-0.225c0.991-0.991,1.538-2.311,1.538-3.716c0-1.405-0.544-2.729-1.535-3.716l-0.445-0.447
				c-0.989-0.989-2.311-1.535-3.716-1.535c-1.407,0-2.725,0.546-3.711,1.533l-0.237,0.237c-9.791,9.791-22.873,15.185-36.837,15.185
				c-13.962,0-27.046-5.394-36.837-15.185L9.924,58.997c-0.994-0.989-2.311-1.533-3.718-1.533
				C4.804,57.464,3.484,58.008,2.488,59.001"/>
		</defs>
		<clipPath id="SVGID_00000091001307641033272980000006727662787322050703_">
			<use xlink:href="#SVGID_00000091013292840591712600000002114497721509920412_"  style="overflow:visible;"/>
		</clipPath>
		
			<linearGradient id="SVGID_00000095300319696435700570000011453805132050813857_" gradientUnits="userSpaceOnUse" x1="-156.4302" y1="366.5046" x2="-154.0126" y2="366.5046" gradientTransform="matrix(55.3141 0 0 -55.3141 8653.3174 20364.7793)">
			<stop  offset="0" style="stop-color:#0075C9"/>
			<stop  offset="0.0054" style="stop-color:#0075C9"/>
			<stop  offset="1" style="stop-color:#009FE3"/>
		</linearGradient>
		
			<rect y="57.464" style="clip-path:url(#SVGID_00000091001307641033272980000006727662787322050703_);fill:url(#SVGID_00000095300319696435700570000011453805132050813857_);" width="134.239" height="68.853"/>
	</g>
	<g>
		<defs>
			<path id="SVGID_00000139254991386166258500000000060736733025938829_" d="M29.669,31.82l-0.442,0.442
				c-0.989,0.991-1.535,2.309-1.535,3.718c0,1.402,0.544,2.725,1.535,3.716l41,40.995c4.637,4.639,10.867,7.195,17.532,7.195
				c6.67,0,12.898-2.555,17.535-7.195l0.23-0.23c0.991-0.989,1.538-2.309,1.538-3.716c0-1.405-0.546-2.727-1.538-3.716l-0.442-0.442
				c-0.991-0.989-2.311-1.535-3.716-1.535c-1.405,0-2.727,0.546-3.706,1.528l-0.242,0.239c-2.534,2.536-5.964,3.933-9.658,3.933
				c-3.692,0-7.12-1.397-9.658-3.933l-41-41c-0.991-0.991-2.309-1.535-3.716-1.535C31.982,30.285,30.66,30.829,29.669,31.82"/>
		</defs>
		<clipPath id="SVGID_00000158010808292659125220000018398211066522907558_">
			<use xlink:href="#SVGID_00000139254991386166258500000000060736733025938829_"  style="overflow:visible;"/>
		</clipPath>
		
			<linearGradient id="SVGID_00000068653366088862195620000014451591630824090259_" gradientUnits="userSpaceOnUse" x1="-153.9659" y1="370.3593" x2="-151.5484" y2="370.3593" gradientTransform="matrix(32.8305 0 0 -32.8305 5082.4702 12218.166)">
			<stop  offset="0" style="stop-color:#0075C9"/>
			<stop  offset="0.0054" style="stop-color:#0075C9"/>
			<stop  offset="1" style="stop-color:#009FE3"/>
		</linearGradient>
		
			<rect x="27.691" y="30.285" style="clip-path:url(#SVGID_00000158010808292659125220000018398211066522907558_);fill:url(#SVGID_00000068653366088862195620000014451591630824090259_);" width="79.37" height="57.602"/>
	</g>
	<g>
		<defs>
			<path id="SVGID_00000099639092525019148560000000294226532719520170_" d="M16.077,45.41l-0.44,0.445
				c-2.048,2.05-2.048,5.382,0,7.432l41,40.995c8.266,8.268,19.319,12.821,31.122,12.821s22.856-4.552,31.114-12.811l0.244-0.239
				c2.045-2.048,2.045-5.384-0.005-7.434l-0.442-0.44c-0.991-0.991-2.311-1.535-3.716-1.535c-1.402,0-2.722,0.544-3.721,1.538
				l-0.225,0.227c-6.165,6.165-14.433,9.559-23.281,9.562c-6.779,0-13.268-2.021-18.777-5.851c-0.442-0.305-0.89-0.529-1.426-0.696
				L23.511,45.407c-0.991-0.989-2.311-1.533-3.713-1.533C18.393,43.875,17.075,44.418,16.077,45.41"/>
		</defs>
		<clipPath id="SVGID_00000026130910610655191580000001119211818120514696_">
			<use xlink:href="#SVGID_00000099639092525019148560000000294226532719520170_"  style="overflow:visible;"/>
		</clipPath>
		
			<linearGradient id="SVGID_00000004545719872088759870000017382729642509084595_" gradientUnits="userSpaceOnUse" x1="-155.5124" y1="367.9403" x2="-153.0948" y2="367.9403" gradientTransform="matrix(44.0724 0 0 -44.0724 6867.9136 16291.5186)">
			<stop  offset="0" style="stop-color:#0075C9"/>
			<stop  offset="0.0054" style="stop-color:#0075C9"/>
			<stop  offset="1" style="stop-color:#009FE3"/>
		</linearGradient>
		
			<rect x="13.589" y="43.875" style="clip-path:url(#SVGID_00000026130910610655191580000001119211818120514696_);fill:url(#SVGID_00000004545719872088759870000017382729642509084595_);" width="107.573" height="63.227"/>
	</g>
	<g>
		<defs>
			<path id="SVGID_00000007390058168067965150000016321033647633634226_" d="M70.226,45.622l-0.232,0.232
				c-0.991,0.991-1.538,2.309-1.538,3.713c0,1.407,0.546,2.727,1.54,3.718l0.44,0.44c0.991,0.994,2.311,1.54,3.716,1.54
				c1.407,0,2.725-0.546,3.709-1.533l0.239-0.235c2.538-2.538,5.967-3.933,9.658-3.933c3.694,0,7.125,1.395,9.658,3.933l41,40.995
				c0.991,0.991,2.311,1.538,3.716,1.538c1.407,0,2.725-0.546,3.711-1.533l0.452-0.447c2.045-2.048,2.045-5.384-0.002-7.432
				l-41-40.995c-4.637-4.642-10.865-7.197-17.535-7.197C81.093,38.428,74.863,40.983,70.226,45.622"/>
		</defs>
		<clipPath id="SVGID_00000150808338734584719510000012174998398557463936_">
			<use xlink:href="#SVGID_00000007390058168067965150000016321033647633634226_"  style="overflow:visible;"/>
		</clipPath>
		
			<linearGradient id="SVGID_00000083065512138985278910000011558257734678840206_" gradientUnits="userSpaceOnUse" x1="-153.2379" y1="370.2138" x2="-150.8203" y2="370.2138" gradientTransform="matrix(32.8304 0 0 -32.8304 5099.3237 12221.5127)">
			<stop  offset="0" style="stop-color:#0075C9"/>
			<stop  offset="0.0054" style="stop-color:#0075C9"/>
			<stop  offset="1" style="stop-color:#009FE3"/>
		</linearGradient>
		
			<rect x="68.457" y="38.428" style="clip-path:url(#SVGID_00000150808338734584719510000012174998398557463936_);fill:url(#SVGID_00000083065512138985278910000011558257734678840206_);" width="79.885" height="57.604"/>
	</g>
	<g>
		<defs>
			<path id="SVGID_00000183971567494131829270000016006734334908769414_" d="M87.759,0C70.821,0,54.942,6.549,43.048,18.446
				l-0.232,0.23c-0.991,0.989-1.538,2.309-1.538,3.713c0,1.405,0.546,2.725,1.54,3.718l0.44,0.44c0.991,0.994,2.311,1.54,3.718,1.54
				c1.405,0,2.722-0.546,3.709-1.535l0.237-0.232c9.791-9.794,22.875-15.185,36.837-15.185c13.964,0,27.046,5.391,36.837,15.185
				l41.002,40.998c0.986,0.989,2.306,1.535,3.713,1.535s2.727-0.546,3.713-1.535l0.445-0.442c0.972-0.974,1.518-2.27,1.535-3.788
				c-0.017-1.378-0.563-2.671-1.535-3.643l-40.998-40.998C120.58,6.549,104.701,0,87.759,0z"/>
		</defs>
		<clipPath id="SVGID_00000154394318215943348980000010730713241546445204_">
			<use xlink:href="#SVGID_00000183971567494131829270000016006734334908769414_"  style="overflow:visible;"/>
		</clipPath>
		
			<linearGradient id="SVGID_00000081615508179238849380000010287136388544828331_" gradientUnits="userSpaceOnUse" x1="-155.9981" y1="367.1138" x2="-153.5805" y2="367.1138" gradientTransform="matrix(55.3138 0 0 -55.3138 8670.1309 20340.8984)">
			<stop  offset="0" style="stop-color:#0075C9"/>
			<stop  offset="0.0054" style="stop-color:#0075C9"/>
			<stop  offset="1" style="stop-color:#009FE3"/>
		</linearGradient>
		
			<rect x="41.278" style="clip-path:url(#SVGID_00000154394318215943348980000010730713241546445204_);fill:url(#SVGID_00000081615508179238849380000010287136388544828331_);" width="133.727" height="68.853"/>
	</g>
	<g>
		<defs>
			<path id="SVGID_00000006670554780328609640000014213932922246716339_" d="M56.635,32.033l-0.23,0.23
				c-0.991,0.991-1.538,2.309-1.538,3.718c0,1.405,0.546,2.725,1.538,3.716l0.445,0.442c0.989,0.989,2.311,1.535,3.716,1.535
				s2.725-0.546,3.711-1.533l0.235-0.232c6.162-6.165,14.421-9.562,23.248-9.562c8.829,0,17.085,3.397,23.25,9.562l40.998,40.995
				c0.989,0.991,2.309,1.538,3.716,1.538c1.405,0,2.725-0.546,3.718-1.538l0.442-0.442c0.989-0.989,1.535-2.309,1.535-3.716
				c0-1.405-0.546-2.727-1.535-3.716l-41-40.998c-8.268-8.268-19.321-12.82-31.124-12.82C75.958,19.213,64.905,23.765,56.635,32.033
				"/>
		</defs>
		<clipPath id="SVGID_00000008112126079224895960000000468862541614499732_">
			<use xlink:href="#SVGID_00000006670554780328609640000014213932922246716339_"  style="overflow:visible;"/>
		</clipPath>
		
			<linearGradient id="SVGID_00000137822836175415649900000016559299349064545677_" gradientUnits="userSpaceOnUse" x1="-154.9701" y1="368.2683" x2="-152.5525" y2="368.2683" gradientTransform="matrix(44.0729 0 0 -44.0729 6884.8486 16281.4824)">
			<stop  offset="0" style="stop-color:#0075C9"/>
			<stop  offset="0.0054" style="stop-color:#0075C9"/>
			<stop  offset="1" style="stop-color:#009FE3"/>
		</linearGradient>
		
			<rect x="54.867" y="19.213" style="clip-path:url(#SVGID_00000008112126079224895960000000468862541614499732_);fill:url(#SVGID_00000137822836175415649900000016559299349064545677_);" width="106.551" height="63.23"/>
	</g>
	<g>
		<defs>
			<rect id="SVGID_00000018195270023645335390000015725677067576091033_" x="0.513" width="501.303" height="126.317"/>
		</defs>
		<clipPath id="SVGID_00000023245989451729361320000004306826526128064187_">
			<use xlink:href="#SVGID_00000018195270023645335390000015725677067576091033_"  style="overflow:visible;"/>
		</clipPath>
		<path style="clip-path:url(#SVGID_00000023245989451729361320000004306826526128064187_);fill:#009FE3;" d="M88.003,69.865
			c3.513,0,6.361-2.848,6.361-6.361c0-3.513-2.848-6.361-6.361-6.361s-6.361,2.848-6.361,6.361
			C81.643,67.017,84.491,69.865,88.003,69.865"/>
	</g>
</g>
<g>
</g>
<g>
</g>
<g>
</g>
<g>
</g>
<g>
</g>
<g>
</g>
</svg>
